Coordinates
version=1
nRows=24
nColumns=24
inDegrees=yes

Units are S.I. units (second, meters, Newtons, ...)
Angles are in degrees.

endheader
time	pelvis_tilt	pelvis_list	pelvis_rotation	pelvis_tx	pelvis_ty	pelvis_tz	hip_flexion_r	hip_adduction_r	hip_rotation_r	knee_angle_r	ankle_angle_r	subtalar_angle_r	mtp_angle_r	hip_flexion_l	hip_adduction_l	hip_rotation_l	knee_angle_l	ankle_angle_l	subtalar_angle_l	mtp_angle_l	lumbar_extension	lumbar_bending	lumbar_rotation
      1.27000000	     17.24190674	      2.39791024	      2.90704058	     -0.52769400	      0.92019559	      0.26451395	     10.38225768	     -0.93015087	     -4.27314705	    -10.82222547	     12.01443333	      1.70067428	     44.29930796	    -34.01587978	      2.51851937	     -6.79651649	    -13.56090080	     31.51507560	     18.29899582	     15.41186981	    -34.13636247	      0.06754087	     -3.71689455
      1.27500000	     17.35445659	      2.27441805	      3.01056198	     -0.51998481	      0.91922427	      0.26494813	     10.43204093	     -0.68535808	     -3.91542592	    -11.70115160	     12.10883935	      1.50535109	     44.25122315	    -34.33326292	      2.18845998	     -6.93751878	    -14.19451284	     31.54616770	     18.68799636	     15.66613465	    -34.15925406	      0.28136021	     -3.88631199
      1.28000000	     17.40110470	      2.17813769	      3.00825366	     -0.51222186	      0.91811540	      0.26546591	     10.61792672	     -0.45083338	     -3.53905254	    -12.79572598	     12.26718409	      1.48802709	     44.20865639	    -34.59113576	      1.96351425	     -7.04989156	    -14.80981124	     31.49089493	     18.87860935	     16.12489409	    -34.09703675	      0.40383206	     -3.87898441
      1.28500000	     17.44228442	      2.07270503	      3.07465902	     -0.50440746	      0.91701560	      0.26581718	     10.82051300	     -0.21366930	     -3.41801864	    -14.00460764	     11.69157636	      1.28068289	     45.79602245	    -34.81884448	      1.70931675	     -7.05131363	    -15.46074648	     31.21220782	     18.83794587	     18.75962282	    -34.02725895	      0.59229573	     -3.91964796
      1.29000000	     17.49505836	      1.98609284	      3.21380991	     -0.49682245	      0.91604489	      0.26610347	     11.07798937	     -0.01263919	     -3.53747444	    -15.38328856	      9.90276933	      0.61540272	     47.64777862	    -34.96881376	      1.41008757	     -6.99936133	    -16.24766944	     30.98951090	     18.95964333	     20.27360399	    -33.99682568	      0.80022264	     -4.04799287
      1.29500000	     17.31418326	      1.88220356	      3.22284583	     -0.48925764	      0.91488592	      0.26646936	     11.70645871	      0.19373878	     -3.44233476	    -16.98159626	      7.76012842	     -0.35991523	     47.56438238	    -34.83411869	      1.20293202	     -6.91566784	    -17.10409382	     30.85931621	     19.00682078	     20.65157310	    -33.72073792	      0.96295865	     -4.08311416
      1.30000000	     17.11889381	      1.77705888	      3.24374385	     -0.48188648	      0.91385675	      0.26675796	     12.37575878	      0.35731746	     -3.26696155	    -18.62926310	      6.50884397	     -0.95479900	     48.13716507	    -34.63621286	      1.00970978	     -6.72226307	    -17.99470077	     30.41712227	     18.78827241	     23.39504506	    -33.44458275	      1.12419752	     -4.10010801
      1.30500000	     16.92397571	      1.66728829	      3.25006039	     -0.47446528	      0.91295964	      0.26705126	     13.02260535	      0.50348825	     -3.09575489	    -20.23646813	      6.50825255	     -0.99885714	     48.46362787	    -34.39993683	      0.84476217	     -6.40649232	    -18.96774788	     30.06067140	     18.38920745	     24.25474801	    -33.16743647	      1.28856500	     -4.05522788
      1.31000000	     16.75099444	      1.55452327	      3.36687372	     -0.46692065	      0.91234720	      0.26715833	     13.60113424	      0.60539649	     -3.16153111	    -21.78772106	      6.97504402	     -0.60722433	     49.46465382	    -34.11113882	      0.61410469	     -6.03108938	    -20.05285475	     29.51050239	     18.04726366	     26.90577424	    -32.91043935	      1.51794780	     -4.12420368
      1.31500000	     16.60969075	      1.41433239	      3.30493570	     -0.45953082	      0.91176867	      0.26778011	     14.18439905	      0.82021487	     -2.93233839	    -23.35212111	      7.41553502	     -0.82550362	     49.37347427	    -33.83366511	      0.42819919	     -5.90533347	    -21.17515118	     29.06885816	     17.87775238	     27.55407234	    -32.70883127	      1.67408582	     -3.97896065
      1.32000000	     16.47912223	      1.21759249	      3.37124105	     -0.45194991	      0.91140837	      0.26804300	     14.71909307	      1.01689824	     -3.01339261	    -24.95150699	      7.84873963	     -1.12006543	     47.91038457	    -33.47718039	      0.14433677	     -5.66836478	    -22.43338801	     28.25718893	     17.30569211	     30.99846957	    -32.49888195	      1.95955634	     -3.93864091
      1.32500000	     16.41649835	      1.04409780	      3.47611583	     -0.44442137	      0.91122602	      0.26821820	     15.12612113	      1.18047968	     -3.08371948	    -26.51420892	      8.33195183	     -1.55133919	     46.08108671	    -33.10780576	     -0.14061069	     -5.39219085	    -23.83278772	     27.42952767	     16.80429209	     33.37188428	    -32.36693607	      2.25600821	     -3.91320801
      1.33000000	     16.38787290	      0.86491789	      3.60380299	     -0.43691512	      0.91119358	      0.26838643	     15.42412256	      1.37795693	     -3.12097147	    -27.98191092	      9.08993572	     -1.66879306	     43.82739916	    -32.71685593	     -0.44185657	     -5.11496888	    -25.30353213	     26.45753230	     16.23768172	     35.96535627	    -32.26735359	      2.57051487	     -3.93886687
      1.33500000	     16.43244012	      0.66096867	      3.73622984	     -0.42943375	      0.91153422	      0.26855026	     15.51552851	      1.63952382	     -3.17416879	    -29.21556035	      9.82453595	     -1.56412535	     42.26334189	    -32.30336982	     -0.79446130	     -4.97577244	    -26.91837393	     25.43567690	     15.78489982	     38.46223686	    -32.24541212	      2.91967416	     -3.95188727
      1.34000000	     16.37707830	      0.42944672	      3.86031186	     -0.42196232	      0.91171326	      0.26875531	     15.64600577	      1.94611374	     -3.16662614	    -30.30971770	     10.59459468	     -1.18292186	     40.56873901	    -31.66597355	     -1.16981367	     -4.85301826	    -28.71298042	     24.29436383	     15.29061355	     41.34104562	    -32.12540747	      3.28333159	     -3.91389864
      1.34500000	     16.39446770	      0.11385772	      3.96183697	     -0.41455530	      0.91217483	      0.26921950	     15.57741053	      2.39460460	     -3.10593109	    -31.13061029	     11.19698164	     -0.94071116	     38.88177987	    -30.97238746	     -1.69666544	     -5.00148349	    -30.71084914	     22.92643691	     15.06314411	     44.34680646	    -32.10187973	      3.69747320	     -3.77334160
      1.35000000	     16.33447184	     -0.08297510	      4.12120355	     -0.40735753	      0.91256904	      0.26953916	     15.55345843	      2.69801040	     -3.06432793	    -31.85552324	     11.76246994	     -0.87602243	     37.56007072	    -30.10856431	     -2.09135422	     -4.83277182	    -32.76981478	     21.40388791	     14.52228746	     47.45148446	    -32.01000301	      4.02549836	     -3.82968745
      1.35500000	     16.27048765	     -0.36065422	      4.29721058	     -0.40013961	      0.91304943	      0.26983812	     15.43170731	      3.10504114	     -3.06493793	    -32.37810053	     12.25043890	     -1.17806847	     36.29542946	    -29.12018273	     -2.60880586	     -4.80416774	    -34.98009496	     19.70136135	     14.06147726	     50.73969674	    -31.89415375	      4.43867899	     -3.84435333
      1.36000000	     16.14559477	     -0.63915931	      4.47075289	     -0.39315861	      0.91339049	      0.27032528	     15.32754746	      3.51808438	     -3.15110524	    -32.77852844	     12.68366673	     -1.53035013	     34.82863073	    -27.93826767	     -3.15917865	     -4.79887611	    -37.34583244	     17.92531292	     13.67378266	     53.51504042	    -31.74914059	      4.83198058	     -3.83656511
      1.36500000	     15.88782613	     -0.88633292	      4.70200976	     -0.38630025	      0.91350904	      0.27075062	     15.33697738	      3.86050242	     -3.36096574	    -33.10865040	     13.16543755	     -1.66125863	     33.44452153	    -26.52814014	     -3.66482218	     -4.58566987	    -39.78315371	     15.94742731	     13.02593373	     56.23455107	    -31.45282425	      5.21799870	     -3.92344558
      1.37000000	     15.50765453	     -1.13899428	      5.00215736	     -0.37950452	      0.91344966	      0.27109576	     15.42772757	      4.21724750	     -3.51796725	    -33.31979520	     13.52574588	     -2.00185162	     33.03354403	    -24.86649659	     -4.18249794	     -4.21612532	    -42.39271107	     14.18095068	     12.60818019	     56.87034734	    -31.02533936	      5.62622070	     -4.09136486
      1.37500000	     15.18584616	     -1.36871440	      5.25724944	     -0.37291415	      0.91347381	      0.27126314	     15.45212929	      4.53725816	     -3.63018710	    -33.53256698	     14.16776542	     -1.94494222	     30.74196704	    -23.25675737	     -4.58845272	     -3.78566059	    -44.89547680	     12.41245119	     11.63398104	     59.78365664	    -30.68695282	      6.01168510	     -4.12222944
      1.38000000	     14.82851381	     -1.75915022	      5.63545014	     -0.36635982	      0.91347119	      0.27143367	     15.45902502	      5.04962598	     -3.77284753	    -33.55029955	     14.45013415	     -2.41302273	     30.45868454	    -21.55257142	     -5.20522060	     -3.25894496	    -47.46831689	     11.57142902	     11.21882827	     59.58485785	    -30.28774741	      6.59930781	     -4.31401252
      1.38500000	     14.37407047	     -2.00478691	      5.94249605	     -0.35986994	      0.91330406	      0.27135322	     15.61897766	      5.34933584	     -3.90282341	    -33.70993613	     15.01975654	     -2.53731327	     28.52070441	    -19.78873953	     -5.52743953	     -2.62784763	    -49.94291978	     11.32404056	     10.50267316	     55.86363761	    -29.78066906	      7.01340026	     -4.42589864
